<svg width="24" height="24" viewBox="0 0 24 24" xmlns="http://www.w3.org/2000/svg">
<path fill-rule="evenodd" clip-rule="evenodd" d="M3 10C3.55228 10 4 10.4477 4 11V14H20V11C20 10.4477 20.4477 10 21 10C21.5523 10 22 10.4477 22 11V14C22 14.5304 21.7893 15.0391 21.4142 15.4142C21.0391 15.7893 20.5304 16 20 16H4C3.46957 16 2.96086 15.7893 2.58579 15.4142C2.21071 15.0391 2 14.5304 2 14V11C2 10.4477 2.44772 10 3 10Z"/>
<path fill-rule="evenodd" clip-rule="evenodd" d="M2.58579 14.5858C2.96086 14.2107 3.46957 14 4 14H20C20.5304 14 21.0391 14.2107 21.4142 14.5858C21.7893 14.9609 22 15.4696 22 16V18C22 18.5304 21.7893 19.0391 21.4142 19.4142C21.0391 19.7893 20.5304 20 20 20H16.17C15.6177 20 15.17 19.5523 15.17 19C15.17 18.4477 15.6177 18 16.17 18H20V16L4 16V18L12 18C12.5523 18 13 18.4477 13 19C13 19.5523 12.5523 20 12 20H4C3.46957 20 2.96086 19.7893 2.58579 19.4142C2.21071 19.0391 2 18.5304 2 18V16C2 15.4696 2.21071 14.9609 2.58579 14.5858Z"/>
<path fill-rule="evenodd" clip-rule="evenodd" d="M12 5.53711C11.7772 5.53711 11.5607 5.61154 11.385 5.74858L5.91581 10.0001H18.0842L12.615 5.74858C12.4393 5.61154 12.2228 5.53711 12 5.53711ZM10.1558 4.17094C10.6828 3.76018 11.3318 3.53711 12 3.53711C12.6682 3.53711 13.3172 3.76018 13.8442 4.17094C13.844 4.17074 13.8445 4.17113 13.8442 4.17094L21.6137 10.2105C21.9511 10.4728 22.0845 10.9203 21.9459 11.3245C21.8073 11.7286 21.4273 12.0001 21 12.0001H3C2.57275 12.0001 2.19269 11.7286 2.05408 11.3245C1.91548 10.9203 2.04895 10.4728 2.38627 10.2105L10.1558 4.17094C10.156 4.17074 10.1555 4.17113 10.1558 4.17094Z"/>
<path fill-rule="evenodd" clip-rule="evenodd" d="M6.05627 14.6693C6.19675 14.2684 6.57519 14 7 14H19.5C19.888 14 20.241 14.2245 20.4056 14.5758C20.5702 14.9272 20.5166 15.3421 20.2682 15.6402L16.5142 20.145C16.0094 20.7432 15.2907 21.1203 14.5116 21.196C13.7329 21.2716 12.9555 21.04 12.3451 20.5507C12.3448 20.5504 12.3445 20.5502 12.3442 20.55L6.37578 15.7813C6.0439 15.5161 5.91578 15.0702 6.05627 14.6693ZM9.85358 16L13.5958 18.99C13.7993 19.1533 14.0586 19.2306 14.3183 19.2054C14.5771 19.1802 14.8159 19.0552 14.9841 18.857L17.365 16H9.85358Z"/>
</svg>
